<?xml version="1.0" encoding="utf-8"?>
<!-- Generator: Adobe Illustrator 22.0.0, SVG Export Plug-In . SVG Version: 6.00 Build 0)  -->
<svg version="1.1" id="Capa_1" xmlns="http://www.w3.org/2000/svg" xmlns:xlink="http://www.w3.org/1999/xlink" x="0px" y="0px"
	 viewBox="0 0 500 158" style="enable-background:new 0 0 500 158;" xml:space="preserve">
<style type="text/css">
	.st0{fill:#0071BC;}
	.st1{fill:#FFFFFF;stroke:#C1272D;stroke-width:2;stroke-linecap:round;stroke-linejoin:round;stroke-miterlimit:10;}
</style>
<g>
	<g>
		<g>
			<circle class="st0" cx="129.5" cy="77.6" r="5.4"/>
		</g>
	</g>
	<g>
		<path class="st0" d="M63.7,53.3l0-3.2c7-2,13.3-6,18.2-11.6c5.9-6.8,9.2-15.6,9.2-24.7V0L62.5,2.5c-6.4,0.6-12.4,3.4-17,7.7
			c-4.6-4.4-10.6-7.2-17-7.7L0,0v13.8c0,9.1,3.3,17.8,9.2,24.7c4.8,5.6,11.2,9.6,18.2,11.6l0,8.7c0,36.3,24.8,67.7,59.6,76.4
			c0,5.9,1.1,12.2,4,18.4L93,158l4.7-1.6c10.7-3.8,19.5-10.9,25.8-20.9c35.7-8,61.3-39.9,61.3-76.8v-5.4H63.7z M129.7,122.3
			c1.9-5.5,2.9-10.4,3.3-13.4c10.9-5.8,19.6-15.1,24.8-26.3l-9.8-4.6c-4.6,9.9-12.5,17.8-22.3,22.5l-2.9,1.4l-0.2,3.2
			c0,0.3-2,27.8-23.6,38.9c-4.9-18.3,7.5-36.9,7.6-37.1l-4.5-3l-4.5-3.1c-0.5,0.7-6.9,10.3-9.6,23.4c-29.2-8-49.9-34.7-49.9-65.4
			l0.1-17.7l-4.6-0.7c-6.3-1-12-4.1-16.2-9c-4.2-4.9-6.6-11.1-6.6-17.6v-2l16.7,1.5c5.5,0.5,10.5,3.6,13.3,8.3l0.1,0.2l4.9,6.6
			l4.2-6.8c2.9-4.7,7.8-7.8,13.3-8.3l16.7-1.5v2c0,6.5-2.3,12.7-6.6,17.6c-4.2,4.8-9.9,8-16.2,9l-4.6,0.7l0.1,23.1h120.8
			C171.6,90.5,154.2,113.2,129.7,122.3z"/>
	</g>
</g>
<g>
	<path class="st0" d="M241.2,52.6v9.6h-11.8v30.9h-12.1V62.2h-11.7v-9.6H241.2z"/>
	<path class="st0" d="M278.1,52.6v9.2H257v6.3h19.1v9.2H257v6.4h21.6v9.2H245V52.6H278.1z"/>
	<path class="st0" d="M294.7,52.6l17.1,22.6V52.6h11v40.5h-10.2l-17.1-22.5v22.5h-11V52.6H294.7z"/>
	<path class="st0" d="M362.7,52.6v9.2h-21.1v6.3h19.1v9.2h-19.1v6.4h21.6v9.2h-33.7V52.6H362.7z"/>
	<path class="st0" d="M392.8,93.1l-5.4-10.9h-6.3v10.9h-12V52.6h18.9c10.9,0,17.1,5.2,17.1,14.4c0,6-2.4,10.4-6.8,12.9l8.2,13.2
		H392.8z M381.1,73h6.9c3.6,0,5.7-2,5.7-5.6c0-3.5-2.1-5.5-5.7-5.5h-6.9V73z"/>
	<path class="st0" d="M422.9,52.6v40.5h-12V52.6H422.9z"/>
	<path class="st0" d="M461.1,52.6v9.2h-19.4v8.1h18v9.2h-18v13.9h-12V52.6H461.1z"/>
	<path class="st0" d="M498.5,52.6v9.2h-21.1v6.3h19.1v9.2h-19.1v6.4h21.6v9.2h-33.7V52.6H498.5z"/>
</g>
<g>
	<path class="st1" d="M156,40.5l-7.3-27.1l-7.4,27.1H131L118.2,1.2h10.7l7.7,28.9L144,1.2h9.8l7.7,28.9l7.6-28.9h10.2l-13,39.3H156z
		"/>
	<path class="st1" d="M182.8,40.5V1.2h10v39.3H182.8z"/>
	<path class="st1" d="M227.3,32.1v8.4h-26.6V1.2h10v30.9H227.3z"/>
	<path class="st1" d="M248.9,1.2c12.3,0,20.9,8,20.9,19.6c0,11.6-8.6,19.6-21.3,19.6H232V1.2H248.9z M242,32.5h7.1
		c6.1,0,10.5-4.7,10.5-11.6c0-7-4.6-11.7-10.9-11.7H242V32.5z"/>
	<path class="st1" d="M322,40.5l-7.3-27.1l-7.4,27.1h-10.3L284.1,1.2h10.7l7.7,28.9L310,1.2h9.8l7.7,28.9L335,1.2h10.2l-13,39.3H322
		z"/>
	<path class="st1" d="M375,40.5V25.2h-16.3v15.3h-10V1.2h10v16.2H375V1.2h10v39.3H375z"/>
	<path class="st1" d="M401.7,33.2l-2.9,7.2h-10.3l16.9-39.3h10.3l16.5,39.3h-10.7l-2.8-7.2H401.7z M410.4,11.1l-5.7,14.5H416
		L410.4,11.1z"/>
	<path class="st1" d="M462.6,32.1v8.4H436V1.2h10v30.9H462.6z"/>
	<path class="st1" d="M477.4,9v7.8h18.7v7.9h-18.7v7.9h21.4v7.9h-31.4V1.2h30.7V9H477.4z"/>
</g>
</svg>
